<svg width="83" height="58" fill="none" xmlns="http://www.w3.org/2000/svg"><path d="M12.263 49.86s2.857-2.086 3.993-6.381c0 0 .162 2.266-.125 3.732 0 0 3.283-5.163 5.13-9.428l.156-.363c.175-.497.382-.88.535-1.392.038-.11.075-.22.11-.328.243-.756.397-1.434.423-1.986a17.328 17.328 0 0 0 .168.705l.1.563a56.157 56.157 0 0 0 .313 1.144l.146.539c.064.181.111.363.146.546.02.16.032.321.038.481l.039.543c.037.697.109 1.452-.077 2.178-.04.177-.093.352-.16.525.076-.146.163-.285.258-.417a7.85 7.85 0 0 1 .977-.841c.124-.09.252-.177.386-.26.462-.246.955-.428 1.441-.617.162-.063.323-.126.481-.194.649-.256 1.287-.595 1.704-1.145.111.159.223.319.173.482-.084.974-1.193 1.92-.257 2.762.111.159.377-.01.425-.227.121-.596.336-1.156.664-1.616.082-.114.17-.223.266-.325.087-.087.177-.167.27-.24l.452-.208c.153-.07.309-.142.462-.217 1.909-.352 2.928-2.754 2.205-4.538a9.7 9.7 0 0 1-.015-.45c.106-1.696.226-3.428 1.152-4.853a3.959 3.959 0 0 1 .699-.786 7.298 7.298 0 0 1 1.004-.715c.156-.097.31-.187.46-.27.155-.104.297-.205.424-.305.64-.496.947-.946 1.055-1.362 0 0-.477 1.596-.79 3.259l-.064.357c-.036.167-.07.336-.101.507-.03.171-.056.343-.077.515a5.403 5.403 0 0 0 .169 2.03c.1-.327.253-.655.394-.98.046-.109.091-.217.134-.325.061-.137.127-.282.199-.433.925-1.97 2.707-5.035 5.172-6.02 3.734-1.493 5.93-4.246 6.176-5.225 0 0-1.804 7.878-1.077 8.996.727 1.118.903-7.263 3.537-9.702 2.635-2.44 6.844-4.322 7.45-6.011 0 0-1.155 5.755-.122 6.163 1.033.408-.703-4.631 1.818-7.284C63.224 7.79 71.99.563 76.234.14c4.245-.423-2.374 4.325-2.456 5.354-.083 1.028 2.824-1.255 2.195-.538-.629.717-6.633 10.855-6.905 15.239 0 0-11.998.497-7.568 1.042s6.582.494 6.582.494-7.55 8.607-7.941 10.237c0 0-8.771.314-5.14 1.31 3.633.995 3.251.788 3.251.788L47.244 44.374s-.153.01-.428.022l-.424.066c-.588.092-1.207.194-1.787.27-.116.016-.23.03-.343.043-.864.137-1.715.186-2.554.174-.14-.002-.28-.005-.42-.01-.44.017-.926-.079-1.353-.08a6.227 6.227 0 0 1-.497-.086 4.513 4.513 0 0 1-1.841-.833 1.724 1.724 0 0 1-.393-.396c-.544-.746-.615-1.847-1.34-2.145-.706-.254-1.1 1.322-2.126 1.184.82.52 1.59 1.152 2.437 1.63a9.968 9.968 0 0 0 1.693.831c.147.057.295.108.445.155.88.336 1.797.369 2.734.568l.445.101c.147.033.291.062.433.084.15.019.301.036.453.058a5.3 5.3 0 0 1 .459.084 57.727 57.727 0 0 0 2.085.28s-2.503 1.14-4.496 3.401c-1.992 2.263-6.134 4.738-11.132 2.91 0 0 .8 1.872 1.94 2.332 0 0-5.375.396-8.125-1.971-2.75-2.368-3.791-3.154-5.834-2.998 0 0 1.754 1.256 2.458 1.456 0 0-2.225.052-4.81-1.455 0 0-1.198.19-.698.827s1.31.725 1.31.725-2.17-.705-4.317-.385c-2.147.321.394-.261.394-.261l-4.579.888 1.129-.617 4.1-1.366Z" fill="url(#a)"/><path d="M4.534 52.102s7.238-1.057 19.528-7.614l.337-.18c.913-.5 1.815-1.063 2.78-1.542l.359-.205c8.153-4.694 18.16-11.643 29.505-21.896 0 0-26.327 29.581-52.51 31.437Z" fill="#630055"/><path d="M5.731 52.144c-.398.041-.793.075-1.187.104l-.031-.29c.017-.002 1.843-.276 5.142-1.346 3.046-.987 8.005-2.873 14.339-6.252l.336-.18c.325-.18.658-.37.979-.555.58-.334 1.18-.68 1.802-.988l.353-.202c9.64-5.549 19.559-12.91 29.481-21.879l.205.205c-.066.074-6.703 7.493-16.455 15.041-5.73 4.434-11.397 8.047-16.847 10.735-6.37 3.144-12.459 5.027-18.117 5.607Zm48.87-29.113c-9.09 7.966-18.157 14.57-26.992 19.656l-.359.205-.007.004c-.615.306-1.213.65-1.79.981-.323.186-.657.378-.985.559l-.338.181c-6.358 3.392-11.338 5.285-14.396 6.276a51.66 51.66 0 0 1-2.73.806c12.649-1.731 25.085-9.604 33.51-16.124A141.225 141.225 0 0 0 54.6 23.031Z" fill="#630055"/><defs><linearGradient id="a" x1="80.619" y1="4.383" x2="13.967" y2="54.875" gradientUnits="userSpaceOnUse"><stop stop-color="#FDCFFF"/><stop offset=".628" stop-color="#F69DFD"/><stop offset=".809" stop-color="#F7A7FD"/><stop offset="1" stop-color="#F48DFC"/></linearGradient></defs></svg>